<?xml version="1.0" encoding="utf-8"?>
<!-- Generator: Adobe Illustrator 22.1.0, SVG Export Plug-In . SVG Version: 6.00 Build 0)  -->
<svg version="1.1" id="Capa_1" xmlns="http://www.w3.org/2000/svg"  x="0px" y="0px"
	 viewBox="0 0 24 24" style="enable-background:new 0 0 24 24;" xml:space="preserve">
<style type="text/css">
	#GitHub{fill:#444444;}
</style>
<g>
	<path id="GitHub" d="M21.5,6.7c-1-1.7-2.3-3-4-4c-1.7-1-3.5-1.5-5.5-1.5c-2,0-3.8,0.5-5.5,1.5c-1.7,1-3,2.3-4,4
		C1.5,8.4,1,10.3,1,12.3c0,2.4,0.7,4.6,2.1,6.5c1.4,1.9,3.2,3.2,5.4,4c0.3,0,0.4,0,0.6-0.1c0.1-0.1,0.2-0.3,0.2-0.4c0,0,0-0.3,0-0.8
		c0-0.5,0-0.9,0-1.3l-0.3,0.1c-0.2,0-0.5,0.1-0.8,0.1c-0.3,0-0.7,0-1-0.1c-0.3-0.1-0.7-0.2-1-0.4c-0.3-0.2-0.5-0.5-0.6-0.9l-0.1-0.3
		C5.3,18.3,5.2,18,5,17.8c-0.2-0.3-0.4-0.4-0.6-0.5l-0.1-0.1C4.2,17.1,4.1,17,4,17c-0.1-0.1-0.1-0.1-0.1-0.2c0-0.1,0-0.1,0.1-0.2
		c0.1,0,0.2-0.1,0.4-0.1l0.3,0c0.2,0,0.4,0.2,0.7,0.3c0.3,0.2,0.5,0.4,0.7,0.7c0.2,0.4,0.5,0.7,0.8,0.9c0.3,0.2,0.6,0.3,0.9,0.3
		c0.3,0,0.6,0,0.8-0.1c0.2,0,0.4-0.1,0.6-0.2c0.1-0.6,0.3-1.1,0.7-1.5c-0.5-0.1-1-0.1-1.5-0.3c-0.4-0.1-0.9-0.3-1.3-0.6
		c-0.5-0.3-0.8-0.6-1.2-1c-0.3-0.4-0.6-0.9-0.8-1.5C5.1,13.2,5,12.5,5,11.7c0-1.2,0.4-2.1,1.1-3C5.8,7.9,5.8,6.9,6.2,5.8
		c0.3-0.1,0.7,0,1.2,0.2C8,6.2,8.4,6.4,8.6,6.6C8.9,6.7,9.1,6.8,9.2,7c0.9-0.2,1.8-0.4,2.7-0.4c0.9,0,1.9,0.1,2.8,0.4l0.5-0.3
		c0.4-0.2,0.8-0.4,1.3-0.6c0.5-0.2,0.9-0.2,1.2-0.2c0.4,1.1,0.5,2.1,0.1,2.9c0.8,0.8,1.1,1.8,1.1,3c0,0.8-0.1,1.5-0.3,2.2
		c-0.2,0.6-0.4,1.1-0.8,1.5c-0.3,0.4-0.7,0.7-1.2,1c-0.5,0.3-0.9,0.4-1.3,0.6C15,17,14.5,17.1,14,17.1c0.5,0.4,0.7,1.1,0.7,2v3
		c0,0.2,0.1,0.3,0.2,0.4c0.1,0.1,0.3,0.1,0.6,0.1c2.2-0.7,4-2.1,5.4-4c1.4-1.9,2.1-4.1,2.1-6.5C23,10.3,22.5,8.4,21.5,6.7z"/>
</g>
</svg>
