<?xml version="1.0" encoding="utf-8"?>
<!-- Generator: Adobe Illustrator 22.1.0, SVG Export Plug-In . SVG Version: 6.00 Build 0)  -->
<svg version="1.1" id="Capa_1" xmlns="http://www.w3.org/2000/svg"  x="0px" y="0px"
	 viewBox="0 0 24 24" style="enable-background:new 0 0 24 24;" xml:space="preserve">
	 <style type="text/css">
	#LinkedIn{fill:#444444;}
</style>
<g>
	<path id="LinkedIn" d="M22.5,14.3V22H18v-7.2c0-1.8-0.7-3.1-2.3-3.1c-1.2,0-2,0.8-2.3,1.6c-0.1,0.3-0.1,0.7-0.1,1.1V22H8.8
		c0,0,0.1-12.3,0-13.5h4.5v1.9c0,0,0,0,0,0h0v0c0.6-0.9,1.7-2.2,4.1-2.2C20.3,8.2,22.5,10.1,22.5,14.3z M4,2C2.5,2,1.5,3,1.5,4.3
		c0,1.3,1,2.3,2.5,2.3h0c1.6,0,2.5-1,2.5-2.3C6.5,3,5.6,2,4,2z M1.8,22h4.5V8.5H1.8V22z"/>
</g>
</svg>
